<svg xmlns="http://www.w3.org/2000/svg" width="25" height="25" viewBox="0 0 25 25"><g><g><g/><g><g><g><path fill="#e9ca77" d="M22.657 18.398c.532.528.812 1.155.812 1.81 0 .649-.274 1.282-.797 1.825-.227.238-.459.465-.686.681-.332.322-.649.623-.923.955-.005.01-.016.016-.021.026-.802.871-1.826 1.309-3.045 1.309-.105 0-.221-.005-.332-.01-1.81-.117-3.43-.797-4.643-1.373-3.177-1.535-5.957-3.714-8.268-6.474-1.905-2.29-3.182-4.427-4.037-6.732C.37 9.475-.085 8.04.042 6.5a3.86 3.86 0 0 1 1.145-2.454l1.794-1.81.01-.01c.528-.507 1.15-.776 1.794-.776.644 0 1.256.27 1.768.776.343.316.675.654.992.981.158.169.327.338.49.501l1.44 1.44c1.109 1.109 1.109 2.544 0 3.652l-.442.449c-.39.395-.792.807-1.224 1.203.321.712.765 1.414 1.424 2.247 1.362 1.673 2.78 2.966 4.343 3.958.153.095.332.184.522.28.132.068.27.137.406.21l1.668-1.662c.533-.533 1.155-.812 1.804-.812.654 0 1.272.285 1.784.818zm-1.014.997l-2.918-2.918c-.163-.18-.432-.385-.76-.385-.332 0-.617.216-.796.396l-1.805 1.804c-.09.09-.364.364-.802.364-.174 0-.342-.042-.522-.131-.021-.011-.042-.027-.063-.037-.153-.095-.333-.185-.523-.28a7.183 7.183 0 0 1-.649-.354c-1.693-1.07-3.229-2.469-4.685-4.263l-.005-.005c-.802-1.019-1.33-1.873-1.705-2.78l-.015-.048c-.095-.301-.18-.744.274-1.198.005-.01.016-.016.026-.027A27.54 27.54 0 0 0 8.02 8.246c.153-.148.3-.3.453-.454.56-.559.56-1.076 0-1.635l-1.44-1.44c-.169-.175-.338-.344-.501-.513a26.64 26.64 0 0 0-.95-.944l-.016-.016c-.169-.169-.438-.37-.77-.37-.27 0-.544.133-.802.375l-1.8 1.8c-.437.437-.675.95-.728 1.567-.079.965.1 1.989.591 3.303.797 2.152 2 4.158 3.8 6.326 2.178 2.601 4.8 4.654 7.787 6.1 1.093.522 2.549 1.134 4.116 1.234.08.006.164.006.243.006.823 0 1.45-.27 1.984-.84.327-.385.675-.728 1.018-1.055.227-.221.438-.422.644-.643-.006.005-.006 0 0 0 .538-.56.538-1.114-.006-1.652z"/></g><g><path fill="#e9ca77" d="M13.506 5.943a6.69 6.69 0 0 1 3.641 1.889 6.726 6.726 0 0 1 1.889 3.64.708.708 0 0 0 .702.592c.042 0 .079-.006.121-.01a.713.713 0 0 0 .586-.824 8.138 8.138 0 0 0-2.285-4.406 8.138 8.138 0 0 0-4.406-2.284.716.716 0 0 0-.823.58.705.705 0 0 0 .575.823z"/></g><g><path fill="#e9ca77" d="M24.974 11.028a13.389 13.389 0 0 0-3.762-7.255A13.389 13.389 0 0 0 13.957.011a.71.71 0 0 0-.817.58.716.716 0 0 0 .585.823 11.989 11.989 0 0 1 6.485 3.361 11.953 11.953 0 0 1 3.361 6.485c.058.348.359.591.702.591.042 0 .079-.005.121-.01a.699.699 0 0 0 .58-.813z"/></g></g></g></g></g></svg>